<svg xmlns="http://www.w3.org/2000/svg" id="Layer_1" data-name="Layer 1" viewBox="0 0 349.31 371.67"><defs><style>.cls-1{fill:#c59970;}</style></defs><path d="M355.31,259.76C333.86,201.59,312.83,143.27,291.63,85,284.26,64.77,277,44.49,269.42,24.33c-4.52-12-16.64-18.23-29-15.38a24.72,24.72,0,0,0-18.76,26.6,5.84,5.84,0,0,1-1.84,4.92C176,90,124,127.45,61.51,149.86,33.78,159.8,16.67,179.51,9.57,208c-.64,2.6-.35,5.41-1.81,7.81v18.74c1.17.41.72,1.46.85,2.24,8.26,50.55,57.86,76.82,98.67,64.6,2.2-.66,3.42.06,4.64,1.77,2.47,3.45,5.09,6.79,7.66,10.17q21.63,28.49,43.28,56.95c6.93,9.11,15.55,11.73,26.07,7.95,4.45-1.6,8.88-3.27,13.33-4.89,14.07-5.13,19.36-17.74,13-31.27-4.44-9.46-9-18.91-13.64-28.25-1.16-2.32-1.09-3.4,1.11-5.07A43.58,43.58,0,0,0,220,280.41c.4-2.39,1.21-3.23,3.71-3.37,27.65-1.52,55.17-.91,82.53,3.82a9.18,9.18,0,0,1,6.64,3.94,23,23,0,0,0,18.57,9.71C349.31,295.16,361.86,277.51,355.31,259.76Zm-257,31.3c-35.39,6.41-71.22-18.7-77.08-54.12a85.27,85.27,0,0,1-1-11.93,66.74,66.74,0,0,1,42.67-62.46c5.8-2.25,11.69-4.27,17.5-6.51,2.17-.83,3.2-.85,4.16,1.86C92,179,99.79,200,107.45,221.09c6.85,18.84,13.63,37.7,20.56,56.5.93,2.51,1,3.73-2,4.68C116.79,285.17,108,289.31,98.32,291.06Zm106.21,57.41c2.62,5.49.54,10.66-5.16,12.76-6.17,2.28-12.23,4.92-17.49,6.11-4.25.2-6.58-1.1-8.34-3.42q-24.85-32.61-49.69-65.23c-1.39-1.82-.86-2.13,1-2.91,14.84-6.18,30.48-9.25,46.13-12.32,1.76-.34,2.43.34,3.1,1.74C184.24,306.29,194.45,327.35,204.53,348.47Zm-7.44-50.91c-1.44,1.34-2.45,2.23-3.6-.5-2-4.69-4.41-9.2-6.66-13.77-.55-1.12-1.52-2.32.74-2.6l20.14-2.55A33.67,33.67,0,0,1,197.09,297.56Zm82.76-32.51a400.3,400.3,0,0,0-61.75-.16,429.93,429.93,0,0,0-74.19,11.76c-2,.5-2.92.46-3.75-1.85q-22.11-61.08-44.52-122.06c-1-2.73.49-3.12,2.19-4A441.35,441.35,0,0,0,188,89.68a353.52,353.52,0,0,0,35.47-34.41c.91-1,1.85-2,3.15-3.41,26.3,72.24,52.37,143.88,78.65,216.07C296.39,266.92,288.15,265.74,279.85,265.05Zm65,5.58A12.34,12.34,0,0,1,334.17,282c-6.26.84-11.4-2.26-13.71-8.52-4.44-12-8.76-24.1-13.15-36.14q-36.09-99.1-72.19-198.19c-3.56-9.77,1.75-18.42,11.21-18.39,5.64,0,9.74,3,11.95,9q8.25,22.43,16.38,44.89Q308.93,168.83,343.22,263C344.12,265.49,345.07,267.94,344.82,270.63Z" transform="translate(-7.76 -8.26)"></path><path class="cls-1" d="M274.66,74.64q-8.18-22.45-16.38-44.89c-2.21-6-6.31-9-11.95-9-9.46,0-14.77,8.62-11.21,18.39q36.09,99.09,72.19,198.19c4.39,12,8.71,24.11,13.15,36.14,2.31,6.26,7.45,9.36,13.71,8.52a12.34,12.34,0,0,0,10.65-11.34c.25-2.69-.7-5.14-1.6-7.61Q308.93,168.83,274.66,74.64Z" transform="translate(-7.76 -8.26)"></path></svg>