<?xml version="1.0" encoding="utf-8"?>
<!-- Generator: Adobe Illustrator 27.0.0, SVG Export Plug-In . SVG Version: 6.00 Build 0)  -->
<svg version="1.1" id="Слой_1" xmlns="http://www.w3.org/2000/svg" xmlns:xlink="http://www.w3.org/1999/xlink" x="0px" y="0px"
	 viewBox="0 0 396.9 245.9" style="enable-background:new 0 0 396.9 245.9;" xml:space="preserve">
<style type="text/css">
	.st0{fill:#454545;}
	.st1{opacity:0.68;fill:#454545;}
</style>
<g>
	<g>
		<g>
			<path class="st0" d="M153.4,92.2v-5.7h5.7v5.7h11.4V80.8h-11.4c-3.8,0-5.7-1.9-5.7-5.7V63.6c0-3.8,1.9-5.7,5.7-5.7h11.4
				c3.8,0,5.7,1.9,5.7,5.7v5.7h-5.7v-5.7h-11.4V75h11.4c3.8,0,5.7,1.9,5.7,5.7v11.4c0,3.8-1.9,5.7-5.7,5.7h-11.4
				C155.3,97.9,153.4,96,153.4,92.2z"/>
			<path class="st0" d="M193.4,92.2h5.7v5.7H182v-5.7h5.7V63.6H182v-5.7h17.2v5.7h-5.7V92.2z"/>
			<path class="st0" d="M204.9,57.9h5.7v34.3H222v-5.7h5.7v11.4h-22.9V57.9z"/>
			<path class="st0" d="M233.5,57.9h5.7v10.5l5.7,18.1l5.7-18.1V57.9h5.7v11.4l-9.1,28.6h-4.8l-9.1-28.6V57.9z"/>
			<path class="st0" d="M279.3,75v5.7h-11.4v11.4h11.4v-5.7h5.7v11.4h-22.9V57.9H285v11.4h-5.7v-5.7h-11.4V75H279.3z"/>
			<path class="st0" d="M296.4,97.9h-5.7V57.9h17.2c3.8,0,5.7,1.9,5.7,5.7V75c0,3.8-1.9,5.7-5.7,5.7h-2.4l8.1,17.2h-6.3l-8.1-17.2
				h-2.7V97.9z M296.4,63.6V75h11.4V63.6H296.4z"/>
			<path class="st0" d="M162,135.1v17.2h-5.7v-40.1h17.2c3.8,0,5.7,1.9,5.7,5.7v11.4c0,3.8-1.9,5.7-5.7,5.7H162z M162,129.4h11.4
				v-11.4H162V129.4z"/>
			<path class="st0" d="M190.6,152.3h-5.7v-40.1h5.7v17.2H202v-17.2h5.7v40.1H202v-17.2h-11.4V152.3z"/>
			<path class="st0" d="M219.2,152.3c-3.8,0-5.7-1.9-5.7-5.7v-28.6c0-3.8,1.9-5.7,5.7-5.7h17.2c3.8,0,5.7,1.9,5.7,5.7v28.6
				c0,3.8-1.9,5.7-5.7,5.7H219.2z M219.2,146.5h17.2v-28.6h-17.2V146.5z"/>
			<path class="st0" d="M265,129.4v5.7h-11.4v11.4H265v-5.7h5.7v11.4h-22.9v-40.1h22.9v11.4H265v-5.7h-11.4v11.4H265z"/>
			<path class="st0" d="M299.3,152.3h-5.7v-34.3h-11.4v34.3h-5.7v-40.1h17.2c3.8,0,5.7,1.9,5.7,5.7V152.3z"/>
			<path class="st0" d="M316.5,146.5h5.7v5.7H305v-5.7h5.7v-28.6H305v-5.7h17.2v5.7h-5.7V146.5z"/>
			<path class="st0" d="M327.9,112.2h5.7v8.8l8.6,7.4l8.6-7.4v-8.8h5.7v11.4l-9.9,8.6l9.9,8.6v11.4h-5.7v-8.8l-8.6-7.4l-8.6,7.4v8.8
				h-5.7v-11.4l9.9-8.6l-9.9-8.6V112.2z"/>
		</g>
		<path class="st0" d="M159.1,193.8v11.4h-5.7v-34.3c0-3.8,1.9-5.7,5.7-5.7h11.4c3.8,0,5.7,1.9,5.7,5.7v34.3h-5.7v-11.4H159.1z
			 M159.1,188.1h11.4v-17.2h-11.4V188.1z"/>
		<path class="st0" d="M187.7,205.2c-3.8,0-5.7-1.9-5.7-5.7v-34.3h5.7v34.3h8.6v-34.3h5.7v34.3h8.6v-34.3h5.7v34.3
			c0,3.8-1.9,5.7-5.7,5.7H187.7z"/>
		<path class="st0" d="M227.8,193.8v11.4H222v-34.3c0-3.8,1.9-5.7,5.7-5.7h11.4c3.8,0,5.7,1.9,5.7,5.7v34.3h-5.7v-11.4H227.8z
			 M227.8,188.1h11.4v-17.2h-11.4V188.1z"/>
		<path class="st0" d="M256.4,205.2h-5.7v-40.1h17.2c3.8,0,5.7,1.9,5.7,5.7v11.4c0,3.8-1.9,5.7-5.7,5.7h-2.4l8.1,17.2h-6.3
			l-8.1-17.2h-2.7V205.2z M256.4,170.9v11.4h11.4v-11.4H256.4z"/>
		<path class="st0" d="M279.3,205.2v-40.1h17.2c3.8,0,5.7,1.9,5.7,5.7v28.6c0,3.8-1.9,5.7-5.7,5.7H279.3z M285,199.5h11.4v-28.6H285
			V199.5z"/>
		<path class="st0" d="M307.9,199.5v-5.7h5.7v5.7h11.4v-11.4h-11.4c-3.8,0-5.7-1.9-5.7-5.7v-11.4c0-3.8,1.9-5.7,5.7-5.7h11.4
			c3.8,0,5.7,1.9,5.7,5.7v5.7h-5.7v-5.7h-11.4v11.4h11.4c3.8,0,5.7,1.9,5.7,5.7v11.4c0,3.8-1.9,5.7-5.7,5.7h-11.4
			C309.8,205.2,307.9,203.3,307.9,199.5z"/>
	</g>
	<path class="st0" d="M90.8,166.3c-7.5-0.3-14.8-1.2-21.8-3.7c0-0.2,0-0.4,0-0.5c0.5-0.1,1.1-0.2,1.6-0.3c2.4-0.3,4.8-0.5,7.1-0.8
		c0.4,0,0.8-0.3,1.2-0.5c0-0.2-0.1-0.3-0.1-0.5c-1,0-2,0-3,0c-7.1-0.1-13.9-1.3-20.4-4.3c-4.9-2.3-8.8-5.8-12.4-9.7
		c-4.9-5.2-8.8-11.1-11.6-17.8c-0.1-0.3-0.3-0.7-0.4-1c0-0.1,0-0.2,0.1-0.4c1.1,1.1,2,2.1,3.1,3.1c7.5,6.7,16.3,10.7,26.4,11.7
		c1,0.1,2,0,3-0.2c0.3,0,0.7-0.4,0.9-0.7c0.1-0.2-0.3-0.7-0.5-0.8c-0.9-0.5-1.7-1-2.6-1.4c-4.8-2.1-9.7-4.2-13.9-7.5
		c-0.7-0.5-1.3-1.1-1.9-1.7c-0.2-0.2-0.2-0.5-0.3-0.8c0.3-0.1,0.6-0.2,0.9-0.2c2.6,0.1,5.2,0.3,7.8,0.4c0.4,0,0.7-0.1,1.1-0.2
		c0-0.1,0-0.2,0-0.4c-0.5-0.1-0.9-0.3-1.4-0.4c-4.4-0.9-8.8-2-12.8-4.3c-6.7-3.8-10.3-9.9-12-17.2c-0.5-2-0.5-4-0.7-6.1
		c0-0.3,0.2-0.7,0.3-1c0.3,0.2,0.7,0.4,0.8,0.7c4,6.7,9.7,11.5,16.8,14.6c1.5,0.7,3.2,1,4.8,1.2c2.1,0.2,3.1-1.1,2.4-3.1
		c-0.6-1.7-1.4-3.5-2.5-5c-2.3-3-4.8-5.9-7.2-8.8c-2-2.3-3.7-4.8-4.3-7.9c-0.1-0.4,0.1-0.9,0.1-1.3c0.4,0.2,0.7,0.4,1.1,0.6
		c1.8,1.2,3.6,2.4,5.4,3.6c0.3,0.2,0.7,0.2,1.1,0.3c0.1-0.1,0.1-0.2,0.2-0.3c-0.4-0.4-0.7-0.7-1.1-1.1c-3.7-3.2-6.4-7.1-7.2-12.1
		c-1-6.5,0.9-12.2,4.8-17.4c2.3-3.1,5.2-5.7,8.4-7.8c0.3-0.2,0.8-0.2,1.2-0.3c-0.1,0.4-0.2,0.8-0.4,1.1c-2.7,3.6-4.4,7.6-4.6,12.1
		c-0.3,5,1.3,9.6,3.8,13.9c3.9,6.7,9.5,12,15.5,16.8c0.5,0.4,1.1,0.9,1.6,1.2c0.2,0.2,0.6,0.1,0.9,0.1c-0.1-0.3-0.2-0.6-0.3-0.8
		c-2.1-2.6-4.3-5-6.3-7.7c-3.8-5.3-6.6-11.2-7.6-17.8c-1.1-7.3,0.7-14,4.4-20.2c0.2-0.3,0.5-0.4,0.8-0.5c0.1,0.3,0.3,0.6,0.3,0.9
		c0.2,1.3,0.3,2.5,0.5,3.8c0.1,0.3,0.4,0.6,0.7,0.8c0.1-0.3,0.4-0.7,0.4-1c0.2-5.5,2.2-10.3,6.2-14.2c3.7-3.7,8.3-5.5,13.3-6.7
		c0.9-0.2,1.7-0.3,2.6-0.5c0.1,0,0.3,0.1,0.7,0.2c-0.3,0.3-0.4,0.7-0.7,0.8c-7.6,4.1-11.4,10.9-13,19c-2,10-0.1,19.4,5.9,27.8
		c2.5,3.5,5.7,6.2,9.4,8.4c0.8,0.5,1.9,1,2.2,1.7c0.2,0.7-0.5,1.7-0.9,2.5c-2.7,5.7,0.4,12.9,6.1,14.3c2.5,0.6,4.7,0,6.7-1.7
		c-0.8-1.9-1.7-3.8-2.4-5.7c-1.7-4.2-3-8.4-3.3-13c-0.3-6.1,1.8-11.3,5.9-15.8c0.3-0.4,0.7-0.8,1.1-1.2c-5.2-2.4-8.7-6.2-10.2-11.9
		c3.9,3,8.3,3.1,12.8,2.7c4.1-0.3,8.1-1,12.2-0.6c6.2,0.7,11.8,2.7,16,7.7c1.3,1.6,2.2,3.3,2.6,5.3c0,0.2,0.1,0.5,0.1,0.7
		c0,0.1-0.1,0.2,0,0.1c-2.7-0.3-5.3-0.7-7.9-0.9c-2.5-0.1-4.8,0.8-6.8,2.3c-2.2,1.7-3,3.9-2.1,6.5c0.9,2.6,2,5.2,3.4,7.6
		c1.4,2.6,3.1,5,4.7,7.5c3.3,5.3,6,10.8,6.9,17c0.9,5.8-0.1,11.3-2.9,16.5c-3.3,6.3-8,11.4-13.3,15.9c-8.9,7.8-12.9,17.7-12.9,29.3
		c-0.1,9.3,2.1,18,5.6,26.6c0.1,0.3,0.3,0.7,0.4,1c0,0,0,0.1-0.2,0.3c-2.3-2.3-4.7-4.4-6.9-6.7c-5.3-5.7-9.7-11.9-12.2-19.3
		C90.1,176.7,89.6,171.6,90.8,166.3z"/>
	<path class="st1" d="M90.8,166.7c-7.5-0.3-14.8-1.2-21.8-3.7c0-0.2,0-0.4,0-0.5c0.5-0.1,1.1-0.2,1.6-0.3c2.4-0.3,4.8-0.5,7.1-0.8
		c0.4,0,0.8-0.3,1.2-0.5c0-0.2-0.1-0.3-0.1-0.5c-1,0-2,0-3,0c-7.1-0.1-13.9-1.3-20.4-4.3c-4.9-2.3-8.8-5.8-12.4-9.7
		c-4.9-5.2-8.8-11.1-11.6-17.8c-0.1-0.3-0.3-0.7-0.4-1c0-0.1,0-0.2,0.1-0.4c1.1,1.1,2,2.1,3.1,3.1c7.5,6.7,16.3,10.7,26.4,11.7
		c1,0.1,2,0,3-0.2c0.3,0,0.7-0.4,0.9-0.7c0.1-0.2-0.3-0.7-0.5-0.8c-0.9-0.5-1.7-1-2.6-1.4c-4.8-2.1-9.7-4.2-13.9-7.5
		c-0.7-0.5-1.3-1.1-1.9-1.7c-0.2-0.2-0.2-0.5-0.3-0.8c0.3-0.1,0.6-0.2,0.9-0.2c2.6,0.1,5.2,0.3,7.8,0.4c0.4,0,0.7-0.1,1.1-0.2
		c0-0.1,0-0.2,0-0.4c-0.5-0.1-0.9-0.3-1.4-0.4c-4.4-0.9-8.8-2-12.8-4.3c-6.7-3.8-10.3-9.9-12-17.2c-0.5-2-0.5-4-0.7-6.1
		c0-0.3,0.2-0.7,0.3-1c0.3,0.2,0.7,0.4,0.8,0.7c4,6.7,9.7,11.5,16.8,14.6c1.5,0.7,3.2,1,4.8,1.2c2.1,0.2,3.1-1.1,2.4-3.1
		c-0.6-1.7-1.4-3.5-2.5-5c-2.3-3-4.8-5.9-7.2-8.8c-2-2.3-3.7-4.8-4.3-7.9c-0.1-0.4,0.1-0.9,0.1-1.3c0.4,0.2,0.7,0.4,1.1,0.6
		c1.8,1.2,3.6,2.4,5.4,3.6c0.3,0.2,0.7,0.2,1.1,0.3c0.1-0.1,0.1-0.2,0.2-0.3c-0.4-0.4-0.7-0.7-1.1-1.1c-3.7-3.2-6.4-7.1-7.2-12.1
		c-1-6.5,0.9-12.2,4.8-17.4c2.3-3.1,5.2-5.7,8.4-7.8c0.3-0.2,0.8-0.2,1.2-0.3c-0.1,0.4-0.2,0.8-0.4,1.1c-2.7,3.6-4.4,7.6-4.6,12.1
		c-0.3,5,1.3,9.6,3.8,13.9c3.9,6.7,9.5,12,15.5,16.8c0.5,0.4,1.1,0.9,1.6,1.2c0.2,0.2,0.6,0.1,0.9,0.1c-0.1-0.3-0.2-0.6-0.3-0.8
		c-2.1-2.6-4.3-5-6.3-7.7c-3.8-5.3-6.6-11.2-7.6-17.8c-1.1-7.3,0.7-14,4.4-20.2c0.2-0.3,0.5-0.4,0.8-0.5c0.1,0.3,0.3,0.6,0.3,0.9
		c0.2,1.3,0.3,2.5,0.5,3.8c0.1,0.3,0.4,0.6,0.7,0.8c0.1-0.3,0.4-0.7,0.4-1c0.2-5.5,2.2-10.3,6.2-14.2c3.7-3.7,8.3-5.5,13.3-6.7
		c0.9-0.2,1.7-0.3,2.6-0.5c0.1,0,0.3,0.1,0.7,0.2c-0.3,0.3-0.4,0.7-0.7,0.8c-7.6,4.1-11.4,10.9-13,19c-2,10-0.1,19.4,5.9,27.8
		c2.5,3.5,5.7,6.2,9.4,8.4c0.8,0.5,1.9,1,2.2,1.7c0.2,0.7-0.5,1.7-0.9,2.5c-2.7,5.7,0.4,12.9,6.1,14.3c2.5,0.6,4.7,0,6.7-1.7
		c-0.8-1.9-1.7-3.8-2.4-5.7c-1.7-4.2-3-8.4-3.3-13c-0.3-6.1,1.8-11.3,5.9-15.8c0.3-0.4,0.7-0.8,1.1-1.2c-5.2-2.4-8.7-6.2-10.2-11.9
		c3.9,3,8.3,3.1,12.8,2.7c4.1-0.3,8.1-1,12.2-0.6c6.2,0.7,11.8,2.7,16,7.7c1.3,1.6,2.2,3.3,2.6,5.3c0,0.2,0.1,0.5,0.1,0.7
		c0,0.1-0.1,0.2,0,0.1c-2.7-0.3-5.3-0.7-7.9-0.9c-2.5-0.1-4.8,0.8-6.8,2.3c-2.2,1.7-3,3.9-2.1,6.5c0.9,2.6,2,5.2,3.4,7.6
		c1.4,2.6,3.1,5,4.7,7.5c3.3,5.3,6,10.8,6.9,17c0.9,5.8-0.1,11.3-2.9,16.5c-3.3,6.3-8,11.4-13.3,15.9c-8.9,7.8-12.9,17.7-12.9,29.3
		c-0.1,9.3,2.1,18,5.6,26.6c0.1,0.3,0.3,0.7,0.4,1c0,0,0,0.1-0.2,0.3c-2.3-2.3-4.7-4.4-6.9-6.7c-5.3-5.7-9.7-11.9-12.2-19.3
		C90.1,177.1,89.6,172,90.8,166.7z"/>
</g>
</svg>
