<svg clip-rule="evenodd" fill-rule="evenodd" stroke-linejoin="round" stroke-miterlimit="2" viewBox="0 0 32 32" xmlns="http://www.w3.org/2000/svg">
  <g id="Icon"/>
  <path fill="#c5996f" d="m2.404 29.379c.122.123-.003-.002-.003-.002-.757-.757-1.182-1.784-1.182-2.854 0-1.071.425-2.098 1.182-2.855l7.181-7.18c.39-.391.39-1.024 0-1.414l-7.181-7.181c-.757-.757-1.182-1.784-1.182-2.854 0-1.06.417-2.076 1.159-2.83-.014.015-.021.022 0 0l.024-.024c.001-.001.001-.002.002-.003.01-.009.017-.016.021-.021.005-.004.007-.007.007-.007.755-.74 1.769-1.154 2.826-1.154 1.071 0 2.097.425 2.854 1.182l7.181 7.181c.39.39 1.024.39 1.414 0l7.181-7.181c.757-.757 1.783-1.182 2.854-1.182s2.097.425 2.854 1.182c.001.001.002.002.003.003.757.757 1.182 1.783 1.182 2.854 0 1.07-.425 2.097-1.182 2.854l-7.181 7.181c-.39.39-.39 1.023 0 1.414l7.181 7.18c.757.757 1.182 1.784 1.182 2.855 0 1.07-.425 2.097-1.182 2.854l-.003.002c-.757.757-1.783 1.183-2.854 1.183s-2.097-.426-2.854-1.183l-7.181-7.18c-.39-.391-1.024-.391-1.414 0l-7.181 7.18c-.757.757-1.783 1.183-2.854 1.183s-2.097-.426-2.854-1.183zm.027-27.224c-.001.001-.012.012-.015.016.005-.006.01-.011.015-.016zm1.387 25.81c.082.089.248.248 0 0 .382.382.9.597 1.44.597s1.058-.215 1.44-.597l7.181-7.18c1.171-1.172 3.071-1.172 4.242 0l7.181 7.18c.382.382.9.597 1.44.597s1.058-.215 1.44-.597c-.092.093-.081.082 0 0l.002-.002c.382-.382.597-.9.597-1.44s-.215-1.058-.597-1.44l-7.18-7.181c-1.172-1.172-1.172-3.071 0-4.243l7.18-7.18c.382-.382.597-.9.597-1.44s-.215-1.058-.597-1.44l-.002-.003c-.382-.382-.9-.596-1.44-.596s-1.058.214-1.44.596l-7.181 7.181c-1.171 1.171-3.071 1.171-4.242 0l-7.181-7.181c-.382-.382-.9-.596-1.44-.596s-1.058.214-1.44.596l-.002.003c-.382.382-.597.9-.597 1.44s.215 1.058.597 1.44l7.18 7.18c1.172 1.172 1.172 3.071 0 4.243l-7.18 7.181c-.382.382-.597.9-.597 1.44s.215 1.058.592 1.435c0 0 .006.006.007.007z"/>
</svg>
