<svg id="Layer_2" viewBox="0 0 512 512" xmlns="http://www.w3.org/2000/svg" data-name="Layer 2" width="300" height="300" version="1.1" xmlns:xlink="http://www.w3.org/1999/xlink" xmlns:svgjs="http://svgjs.dev/svgjs"><g transform="matrix(1,0,0,1,0,0)"><g id="Icon"><g id="_46" data-name="46"><path d="m362 0h-212c-82.84 0-150 67.16-150 150v212c0 82.84 67.16 150 150 150h212c82.84 0 150-67.16 150-150v-212c0-82.84-67.16-150-150-150zm-33.33 261.85-104.4 124.65c-2.1 1.8-4.73 2.7-7.88 2.7s-7.95-1.43-14.4-4.28-11.7-6.97-15.75-12.38c-4.05-5.4-6.08-9.38-6.08-11.92s.9-4.72 2.7-6.53l90.9-100.8-92.25-94.95c-1.8-1.8-2.7-3.98-2.7-6.52s2.03-6.6 6.08-12.15 9.29-9.75 15.75-12.6c6.45-2.85 11.25-4.28 14.4-4.28s5.77 1.05 7.88 3.15l103.95 115.2c4.2 4.2 6.3 7.95 6.3 11.25s-1.5 6.45-4.5 9.45z" fill="#c5996fff" data-original-color="#000000ff" stroke="none"/></g></g></g></svg>