<svg clip-rule="evenodd" fill-rule="evenodd" stroke-linejoin="round" stroke-miterlimit="2" viewBox="0 0 32 32" xmlns="http://www.w3.org/2000/svg">
  <g id="Icon"/>
  <path fill="#c5996f" d="m27.668 3.333c.884 0 1.731.351 2.356.976s.976 1.473.976 2.356v.003c0 .884-.351 1.731-.976 2.356s-1.472.976-2.356.976h-23.336c-.884 0-1.731-.351-2.356-.976s-.976-1.472-.976-2.356v-.003c0-.883.351-1.731.976-2.356s1.472-.976 2.356-.976zm0 2h-23.336c-.353 0-.692.141-.942.39-.25.25-.39.589-.39.942v.003c0 .353.14.692.39.942s.589.39.942.39h23.336c.353 0 .692-.14.942-.39s.39-.589.39-.942v-.003c0-.353-.14-.692-.39-.942-.25-.249-.589-.39-.942-.39z"/>
  <path fill="#c5996f" d="m27.668 12.667c.884 0 1.731.351 2.356.976.625.624.976 1.472.976 2.356v.002c0 .884-.351 1.732-.976 2.356-.625.625-1.472.976-2.356.976h-23.336c-.884 0-1.731-.351-2.356-.976-.625-.624-.976-1.472-.976-2.356v-.002c0-.884.351-1.732.976-2.356.625-.625 1.472-.976 2.356-.976zm0 2h-23.336c-.353 0-.692.14-.942.39s-.39.588-.39.942v.002c0 .354.14.692.39.942s.589.39.942.39h23.336c.353 0 .692-.14.942-.39s.39-.588.39-.942v-.002c0-.354-.14-.692-.39-.942s-.589-.39-.942-.39z"/>
  <path fill="#c5996f" d="m27.668 22c.884 0 1.731.351 2.356.976s.976 1.472.976 2.356v.003c0 .883-.351 1.731-.976 2.356s-1.472.976-2.356.976h-23.336c-.884 0-1.731-.351-2.356-.976s-.976-1.473-.976-2.356v-.003c0-.884.351-1.731.976-2.356s1.472-.976 2.356-.976zm0 2h-23.336c-.353 0-.692.14-.942.39s-.39.589-.39.942v.003c0 .353.14.692.39.942.25.249.589.39.942.39h23.336c.353 0 .692-.141.942-.39.25-.25.39-.589.39-.942v-.003c0-.353-.14-.692-.39-.942s-.589-.39-.942-.39z"/>
</svg>
